<?xml version="1.0" encoding="UTF-8" standalone="no"?>
<svg width="60px" height="67px" viewBox="0 0 60 67" version="1.1" xmlns="http://www.w3.org/2000/svg" xmlns:xlink="http://www.w3.org/1999/xlink">
    <defs></defs>
    <g id="Page-1" stroke="none" stroke-width="1" fill="none" fill-rule="evenodd">
        <g id="1416604874_target" fill="#DB4D57">
            <g>
                <g id="Group">
                    <g id="Shape">
                        <g id="Group">
                            <path d="M26.2031739,61.4913438 C11.7512609,61.4913438 -0.00286956522,49.6989512 -0.00286956522,35.202873 C-0.00286956522,20.7079727 11.7512609,8.91361719 26.2031739,8.91361719 C40.6511739,8.91361719 52.4051739,20.7081035 52.4051739,35.202873 C52.4050435,49.6989512 40.6510435,61.4913438 26.2031739,61.4913438 L26.2031739,61.4913438 L26.2031739,61.4913438 Z M26.2031739,11.0358945 C12.9204783,11.0358945 2.1123913,21.8770703 2.1123913,35.2030039 C2.1123913,48.5301152 12.9203478,59.3691973 26.2031739,59.3691973 C39.486,59.3691973 50.2897826,48.5301152 50.2897826,35.2030039 C50.2897826,21.8770703 39.486,11.0358945 26.2031739,11.0358945 L26.2031739,11.0358945 L26.2031739,11.0358945 Z" id="Shape"></path>
                            <path d="M26.2031739,55.5019102 C15.0481304,55.5019102 5.97130435,46.3954062 5.97130435,35.2030039 C5.97130435,24.0117793 15.0481304,14.9052754 26.2031739,14.9052754 C37.3582174,14.9052754 46.4350435,24.0117793 46.4350435,35.2030039 C46.4350435,46.3954062 37.3582174,55.5019102 26.2031739,55.5019102 L26.2031739,55.5019102 L26.2031739,55.5019102 Z M26.2031739,17.0274219 C16.2131739,17.0274219 8.08656522,25.1804844 8.08656522,35.2030039 C8.08656522,45.2265703 16.2131739,53.3796328 26.2031739,53.3796328 C36.1931739,53.3796328 44.319913,45.2264395 44.319913,35.2030039 C44.3197826,25.1804844 36.1930435,17.0274219 26.2031739,17.0274219 L26.2031739,17.0274219 L26.2031739,17.0274219 Z" id="Shape"></path>
                            <path d="M26.2031739,49.628418 C18.2748261,49.628418 11.8254783,43.158207 11.8254783,35.2030039 C11.8254783,27.2489785 18.2746957,20.7786367 26.2031739,20.7786367 C34.1316522,20.7786367 40.5808696,27.2489785 40.5808696,35.2030039 C40.5807391,43.158207 34.1315217,49.628418 26.2031739,49.628418 L26.2031739,49.628418 L26.2031739,49.628418 Z M26.2031739,22.9007832 C19.4398696,22.9007832 13.9408696,28.4199082 13.9408696,35.2030039 C13.9408696,41.9851836 19.4398696,47.5064023 26.2031739,47.5064023 C32.9623043,47.5064023 38.4656087,41.9853145 38.4656087,35.2030039 C38.4654783,28.4199082 32.9623043,22.9007832 26.2031739,22.9007832 L26.2031739,22.9007832 L26.2031739,22.9007832 Z" id="Shape"></path>
                            <path d="M26.2031739,44.4431152 C21.1256087,44.4431152 16.994087,40.2981445 16.994087,35.2030039 C16.994087,30.1089102 21.1256087,25.9639395 26.2031739,25.9639395 C31.2808696,25.9639395 35.4123913,30.1089102 35.4123913,35.2030039 C35.4122609,40.2981445 31.2807391,44.4431152 26.2031739,44.4431152 L26.2031739,44.4431152 L26.2031739,44.4431152 Z M26.2031739,28.0860859 C22.2906522,28.0860859 19.1093478,31.2777461 19.1093478,35.2030039 C19.1093478,39.1294395 22.2906522,42.3210996 26.2031739,42.3210996 C30.1156957,42.3210996 33.297,39.1294395 33.297,35.2030039 C33.2968696,31.2777461 30.1156957,28.0860859 26.2031739,28.0860859 L26.2031739,28.0860859 L26.2031739,28.0860859 Z" id="Shape"></path>
                            <path d="M26.2031739,38.1054648 C24.6043043,38.1054648 23.307,36.8039375 23.307,35.202873 C23.307,33.6008926 24.6043043,32.2972715 26.2031739,32.2972715 C27.798,32.2972715 29.0993478,33.6008926 29.0993478,35.202873 C29.0993478,36.8039375 27.7978696,38.1054648 26.2031739,38.1054648 L26.2031739,38.1054648 L26.2031739,38.1054648 Z M26.2031739,34.4195488 C25.7735217,34.4195488 25.4223913,34.7718223 25.4223913,35.202873 C25.4223913,35.6351016 25.7735217,35.9831875 26.2031739,35.9831875 C26.6328261,35.9831875 26.984087,35.6351016 26.984087,35.202873 C26.9839565,34.7719531 26.6328261,34.4195488 26.2031739,34.4195488 L26.2031739,34.4195488 L26.2031739,34.4195488 Z" id="Shape"></path>
                            <path d="M26.0543478,36.2651895 C25.7899565,36.2651895 25.5297391,36.169793 25.3271739,35.9749434 C24.9015652,35.5698027 24.8851304,34.8982324 25.2858261,34.4734629 L49.5296087,8.82868945 C49.9303043,8.40391992 50.6038696,8.38939453 51.0253043,8.79139453 C51.4507826,9.19339453 51.4673478,9.86496484 51.0624783,10.2918281 L26.8186957,35.9335918 C26.6122174,36.1531738 26.3312609,36.2651895 26.0543478,36.2651895 L26.0543478,36.2651895 L26.0543478,36.2651895 Z" id="Shape"></path>
                            <path d="M45.3982174,15.5373262 C45.146087,15.5373262 44.8981304,15.4482109 44.6958261,15.2699805 C42.9646957,13.7364395 42.1879565,11.9830547 42.3902609,10.064002 C42.9067826,5.15847656 49.9386522,1.12539062 50.2360435,0.957498047 L51.93,0 L51.3515217,9.62457617 C51.3185217,10.2089941 50.8682609,10.6359883 50.2318696,10.6193691 C49.6493478,10.584168 49.2073043,10.0806211 49.2403043,9.49607227 L49.5748696,3.90876953 C47.4885652,5.40920312 44.7451304,7.88794141 44.4931304,10.2879023 C44.3650435,11.5024082 44.8897826,12.6132734 46.0961739,13.6826562 C46.5340435,14.0680371 46.5755217,14.7396074 46.1912609,15.1790332 C45.9806087,15.4149727 45.6873913,15.5373262 45.3982174,15.5373262 L45.3982174,15.5373262 L45.3982174,15.5373262 Z" id="Shape"></path>
                            <path d="M49.1287826,17.5911641 C47.2861304,17.5911641 45.6706957,16.6916367 44.3114348,14.917707 C43.9561304,14.4514551 44.0427391,13.786166 44.5098261,13.4295742 C44.9642609,13.0731133 45.6375652,13.1601348 45.9889565,13.6244238 C46.9721739,14.909332 48.0422609,15.5228008 49.257,15.4688867 C51.6657391,15.3818652 54.318,12.8120488 55.9541739,10.8265195 L50.3724783,10.7726055 C49.785913,10.7664551 49.3189565,10.2876406 49.323,9.70112891 C49.3313478,9.11461719 49.7651739,8.65032813 50.3932174,8.65032813 L60.003,8.74572461 L58.932913,10.3706055 C58.7428696,10.6607207 54.2437826,17.4171211 49.3314783,17.5890703 C49.2610435,17.5911641 49.194913,17.5911641 49.1287826,17.5911641 L49.1287826,17.5911641 L49.1287826,17.5911641 Z" id="Shape"></path>
                            <path d="M5.20682609,67 L3.38895652,65.922373 L10.4332174,53.9558066 L12.2552609,55.0376211 L5.20682609,67 L5.20682609,67 Z" id="Shape"></path>
                            <path d="M47.1993913,67 L40.151087,55.0376211 L41.973,53.9558066 L49.0172609,65.922373 L47.1993913,67 L47.1993913,67 Z" id="Shape"></path>
                        </g>
                    </g>
                </g>
            </g>
        </g>
    </g>
</svg>