<?xml version="1.0" encoding="UTF-8" standalone="no"?>
<svg width="60px" height="59px" viewBox="0 0 60 59" version="1.1" xmlns="http://www.w3.org/2000/svg" xmlns:xlink="http://www.w3.org/1999/xlink">
    <defs></defs>
    <g id="Page-1" stroke="none" stroke-width="1" fill="none" fill-rule="evenodd">
        <g id="1416605071_thin-031_bubble_comment_chat_message" fill="#DC4A55">
            <g>
                <path d="M39.4261224,0 L20.2102041,0 C9.06612245,0 0,9.89970833 0,22.0672292 C0,32.4032917 6.52163265,41.2729583 15.6465306,43.5628958 L15.6465306,57.4955 C15.6465306,57.9785625 15.9281633,58.417375 16.3665306,58.6152708 C16.5281633,58.6890208 16.6995918,58.7246667 16.8710204,58.7246667 C17.1636735,58.7246667 17.4526531,58.6201875 17.6804082,58.417375 L33.835102,44.1332292 L39.424898,44.1332292 C50.5689796,44.1332292 59.635102,34.2335208 59.635102,22.066 C59.635102,9.89847917 50.5702041,0 39.4261224,0 L39.4261224,0 L39.4261224,0 Z M39.4261224,41.676125 L33.3734694,41.676125 C33.0759184,41.676125 32.7869388,41.7855208 32.5640816,41.9834167 L18.0955102,54.7753542 L18.0955102,42.5771042 C18.0955102,41.9883333 17.6804082,41.4819167 17.1036735,41.3700625 C8.61306122,39.7168333 2.44897959,31.5981875 2.44897959,22.0672292 C2.44897959,11.2554792 10.4167347,2.45833333 20.2102041,2.45833333 L39.424898,2.45833333 C49.2183673,2.45833333 57.1861224,11.25425 57.1861224,22.0672292 C57.1861224,32.8802083 49.2195918,41.676125 39.4261224,41.676125 L39.4261224,41.676125 L39.4261224,41.676125 Z" id="Shape"></path>
                <g id="Group" transform="translate(19.591837, 6.145833)">
                    <path d="M10.4110019,23.9394797 C10.0628015,23.9394797 9.78020409,23.6718661 9.78020409,23.3421277 L9.78020409,10.2717667 C9.78020409,9.94202843 10.0628015,9.67441472 10.4110019,9.67441472 C10.7592022,9.67441472 11.0417996,9.94202843 11.0417996,10.2717667 L11.0417996,23.3424264 C11.0417996,23.6718661 10.7592022,23.9394797 10.4110019,23.9394797 L10.4110019,23.9394797 L10.4110019,23.9394797 Z" id="Shape"></path>
                    <path d="M15.457384,29.8502781 L5.36398887,29.8502781 C5.01578849,29.8502781 4.73319109,29.5826643 4.73319109,29.2529261 C4.73319109,28.9231877 5.01578849,28.6555739 5.36398887,28.6555739 L15.457384,28.6555739 C15.8055844,28.6555739 16.0881818,28.9231877 16.0881818,29.2529261 C16.0881818,29.5826643 15.8055844,29.8502781 15.457384,29.8502781 L15.457384,29.8502781 L15.457384,29.8502781 Z" id="Shape"></path>
                    <path d="M15.457384,26.8909962 L5.36398887,26.8909962 C5.01578849,26.8909962 4.73319109,26.6233824 4.73319109,26.2936441 C4.73319109,25.9639058 5.01578849,25.696292 5.36398887,25.696292 L15.457384,25.696292 C15.8055844,25.696292 16.0881818,25.9639058 16.0881818,26.2936441 C16.0881818,26.6233824 15.8055844,26.8909962 15.457384,26.8909962 L15.457384,26.8909962 L15.457384,26.8909962 Z" id="Shape"></path>
                    <path d="M15.8264007,23.9394797 L4.99497217,23.9394797 L4.99497217,18.5304572 C1.81922078,16.7282462 -0.138144713,13.4756643 -0.138144713,9.95666355 C-0.138144713,4.44848052 4.59410018,-0.0331530374 10.4110019,-0.0331530374 C16.2279036,-0.0331530374 20.9601484,4.44818185 20.9601484,9.95666355 C20.9601484,13.4753656 19.0027829,16.7279475 15.8264007,18.5304572 L15.8264007,23.9394797 L15.8264007,23.9394797 Z M6.25656771,22.7447757 L14.5648052,22.7447757 L14.5648052,17.8324513 L14.8906123,17.662206 C17.856308,16.1120774 19.6985529,13.1593664 19.6985529,9.95696223 C19.6985529,5.10735982 15.5321336,1.16184969 10.4110019,1.16184969 C5.28987013,1.16184969 1.12345083,5.10735982 1.12345083,9.95666355 C1.12345083,13.1593664 2.96569573,16.1117789 5.93076067,17.6619073 L6.25656771,17.8321526 L6.25656771,22.7447757 L6.25656771,22.7447757 Z" id="Shape"></path>
                    <path d="M10.4110019,32.0070176 C9.0087384,32.0070176 7.86762523,30.9264077 7.86762523,29.5984941 C7.86762523,29.2687559 8.15022263,29.0011421 8.49842301,29.0011421 C8.84662337,29.0011421 9.12922078,29.2687559 9.12922078,29.5984941 C9.12922078,30.2678271 9.70419295,30.8123135 10.4110019,30.8123135 C11.1178108,30.8123135 11.6927829,30.2678271 11.6927829,29.5984941 C11.6927829,29.2687559 11.9753803,29.0011421 12.3235807,29.0011421 C12.6717811,29.0011421 12.9543785,29.2687559 12.9543785,29.5984941 C12.9543785,30.9264077 11.8132653,32.0070176 10.4110019,32.0070176 L10.4110019,32.0070176 L10.4110019,32.0070176 Z" id="Shape"></path>
                    <path d="M12.6200557,12.9613442 C11.6757514,12.9613442 10.8377365,12.5225892 10.3207978,11.8487761 C9.80038962,12.4013268 9.04280149,12.749583 8.20131725,12.749583 C6.63504638,12.749583 5.36083488,11.5429318 5.36083488,10.0603041 C5.36083488,9.73056581 5.64343228,9.46295211 5.99163266,9.46295211 C6.33983302,9.46295211 6.62243042,9.73056581 6.62243042,10.0603041 C6.62243042,10.8846499 7.33081632,11.5548789 8.20131725,11.5548789 C9.07181819,11.5548789 9.78020409,10.8843512 9.78020409,10.0603041 C9.78020409,9.73056581 10.0628015,9.46295211 10.4110019,9.46295211 C10.7592022,9.46295211 11.0417996,9.73056581 11.0417996,10.0603041 L11.0417996,10.2717667 C11.0417996,11.0961125 11.7498701,11.7666402 12.6200557,11.7666402 C13.4905566,11.7666402 14.1989424,11.0961125 14.1989424,10.2717667 C14.1989424,9.94202843 14.4815399,9.67441472 14.8297402,9.67441472 C15.1779407,9.67441472 15.4605381,9.94202843 15.4605381,10.2717667 C15.4605381,11.7546932 14.1863265,12.9613442 12.6200557,12.9613442 L12.6200557,12.9613442 L12.6200557,12.9613442 Z" id="Shape"></path>
                </g>
            </g>
        </g>
    </g>
</svg>