<?xml version="1.0" encoding="UTF-8" standalone="no"?>
<svg width="63px" height="63px" viewBox="0 0 63 63" version="1.1" xmlns="http://www.w3.org/2000/svg" xmlns:xlink="http://www.w3.org/1999/xlink">
    <defs></defs>
    <g id="Page-1" stroke="none" stroke-width="1" fill="none" fill-rule="evenodd">
        <g transform="translate(1.000000, 1.000000)" id="1416605031_Design" stroke-width="2" stroke="#DB4D57">
            <g>
                <g id="Group">
                    <g id="Shape">
                        <path d="M31.9580952,19.683871 L12.6457143,0.181935484 C11.9485714,-0.526451613 8.04761905,1.00451613 7.05238095,2.01580645 L2.43809524,6.70354839 C1.44380952,7.71483871 -0.0628571429,11.6796774 0.634285714,12.3880645 L19.6266667,31.5677419"></path>
                        <path d="M32.2457143,44.31 L41.6619048,53.8190323 C42.3571429,54.5254839 59.5028571,60.3851613 59.5028571,60.3851613 C59.5028571,60.3851613 54.3704762,42.3212903 53.6733333,41.6129032 L44.1361905,31.9906452"></path>
                        <path d="M17.152381,4.60064516 L4.98380952,16.9664516"></path>
                        <path d="M40.4638095,35.9545161 L46.9390476,42.4790323"></path>
                        <path d="M13.28,8.53548387 L28.0828571,23.4541935"></path>
                        <path d="M35.7161905,40.1448387 L45.6742857,50.1870968"></path>
                        <path d="M8.85619048,13.0316129 L23.852381,28.1651613"></path>
                        <path d="M53.2609524,42.3183871 L46.7809524,42.3183871 L45.5952381,50.2674194 L38.4047619,50.6690323"></path>
                        <path d="M24.5742857,56.2354839 C20.3257143,58.6790323 13.6942857,62.3748387 1.20285714,58.2541935 C0.458095238,58.0064516 0.196190476,56.5790323 0.832380952,56.2964516 C12.587619,51.0909677 7.89714286,45.423871 10.0152381,40.3151613 C12.4066667,34.5532258 17.992381,33.0203226 21.94,34.8425806 L29.7380952,42.7925806 C30.3933333,46.9035484 28.9657143,53.7077419 24.5742857,56.2354839 L24.5742857,56.2354839 L24.5742857,56.2354839 Z"></path>
                        <path d="M53.0361905,3.82451613 C54.1057143,2.73774194 55.6971429,2.59064516 56.5885714,3.4983871 L59.8704762,6.83225806 C60.7638095,7.74 60.62,9.35612903 59.5495238,10.443871 L30.0647619,41.1532258 C28.9952381,42.2390323 28.347619,41.4222581 27.4552381,40.5154839 L24.1752381,37.1816129 C23.2819048,36.273871 22.4790476,35.6177419 23.5495238,34.53 L53.0361905,3.82451613 L53.0361905,3.82451613 Z"></path>
                        <path d="M27.9152381,29.6980645 L34.1533333,36.0377419"></path>
                    </g>
                </g>
            </g>
        </g>
    </g>
</svg>