<?xml version="1.0" encoding="UTF-8" standalone="no"?>
<svg width="62px" height="62px" viewBox="0 0 62 62" version="1.1" xmlns="http://www.w3.org/2000/svg" xmlns:xlink="http://www.w3.org/1999/xlink">
    <defs></defs>
    <g id="Page-1" stroke="none" stroke-width="1" fill="none" fill-rule="evenodd">
        <g transform="translate(1.000000, 1.000000)" id="1416605056_terminal_application" stroke-width="2" stroke="#DB4D57">
            <g>
                <path d="M-0.00176470588,14.1123529 L59.9841176,14.1123529 L59.9841176,56.0947059 C59.9841176,58.2317647 58.2405882,59.9770588 56.1035294,59.9770588 L3.88058824,59.9770588 C1.74176471,59.9770588 -0.00176470588,58.2335294 -0.00176470588,56.0947059 L-0.00176470588,14.1123529 L-0.00176470588,14.1123529 Z M-0.00176470588,14 L-0.00176470588,3.67357649 C-0.00176470588,1.83678824 1.74176471,0 3.88058824,0 L3.88058824,0 L56.1035294,0 C58.2405882,0 59.9841176,1.81291 59.9841176,4.03909735 L59.9841176,14 L-0.00176470588,14 L-0.00176470588,14 Z M51.1764706,7.05705882 L54.7058824,7.05705882 L51.1764706,7.05705882 L51.1764706,7.05705882 Z M37.0623529,7.05705882 L40.59,7.05705882 L37.0623529,7.05705882 L37.0623529,7.05705882 Z M44.1194118,7.05705882 L47.6488235,7.05705882 L44.1194118,7.05705882 L44.1194118,7.05705882 Z" id="Shape"></path>
                <path d="M10.5882353,24.0052941 L18.8823529,32.2976471 L10.5882353,40.5882353" id="Shape"></path>
                <path d="M37.0570588,38 L24.7058824,38" id="Shape"></path>
            </g>
        </g>
    </g>
</svg>