<?xml version="1.0" encoding="UTF-8" standalone="no"?>
<svg width="40px" height="40px" viewBox="0 0 40 40" version="1.1" xmlns="http://www.w3.org/2000/svg" xmlns:xlink="http://www.w3.org/1999/xlink">
    <defs></defs>
    <g id="Page-1" stroke="none" stroke-width="1" fill="none" fill-rule="evenodd">
        <g transform="translate(-1.000000, -1.000000)" id="Fill-290" fill="#FFFFFF">
            <path d="M21,1 C32.0453125,1 41,9.95453125 41,21 C41,32.0453125 32.0453125,41 21,41 C9.9546875,41 1,32.0453125 1,21 C1,9.95453125 9.9546875,1 21,1 L21,1 L21,1 Z M21,3.5 C16.325,3.5 11.93125,5.3203125 8.625,8.625 C5.3203125,11.93125 3.5,16.325 3.5,21 C3.5,25.675 5.3203125,30.06875 8.625,33.375 C11.93125,36.6795313 16.325,38.5 21,38.5 C25.675,38.5 30.06875,36.6795313 33.375,33.375 C36.6796875,30.06875 38.5,25.675 38.5,21 C38.5,16.325 36.6796875,11.93125 33.375,8.625 C30.06875,5.3203125 25.675,3.5 21,3.5 L21,3.5 L21,3.5 Z M18.5,31 C17.8609375,31 17.2203125,30.75625 16.7328125,30.2671875 C15.75625,29.2921875 15.75625,27.7076563 16.7328125,26.7328125 L22.4640625,21 L16.7328125,15.2670312 C15.75625,14.2904687 15.75625,12.7076563 16.7328125,11.7328125 C17.709375,10.75625 19.290625,10.75625 20.2671875,11.7328125 L27.7671875,19.2328125 C28.74375,20.2076563 28.74375,21.7904687 27.7671875,22.7671875 L20.2671875,30.2671875 C19.7796875,30.75625 19.1390625,31 18.5,31 L18.5,31 L18.5,31 Z" transform="translate(21.000000, 21.000000) rotate(0.000000) translate(-21.000000, -21.000000) "></path>
        </g>
    </g>
</svg>