<?xml version="1.0" encoding="UTF-8" standalone="no"?>
<svg width="40px" height="40px" viewBox="0 0 40 40" version="1.1" xmlns="http://www.w3.org/2000/svg" xmlns:xlink="http://www.w3.org/1999/xlink">
    <defs></defs>
    <g id="Page-1" stroke="none" stroke-width="1" fill="none" fill-rule="evenodd">
        <g transform="translate(-1.000000, 0.000000)" id="Fill-290" fill="#FFFFFF">
            <path d="M21,0 C32.0453125,0 41,8.95453125 41,20 C41,31.0453125 32.0453125,40 21,40 C9.9546875,40 1,31.0453125 1,20 C1,8.95453125 9.9546875,0 21,0 L21,0 L21,0 Z M21,2.5 C16.325,2.5 11.93125,4.3203125 8.625,7.625 C5.3203125,10.93125 3.5,15.325 3.5,20 C3.5,24.675 5.3203125,29.06875 8.625,32.375 C11.93125,35.6795313 16.325,37.5 21,37.5 C25.675,37.5 30.06875,35.6795313 33.375,32.375 C36.6796875,29.06875 38.5,24.675 38.5,20 C38.5,15.325 36.6796875,10.93125 33.375,7.625 C30.06875,4.3203125 25.675,2.5 21,2.5 L21,2.5 L21,2.5 Z M18.5,30 C17.8609375,30 17.2203125,29.75625 16.7328125,29.2671875 C15.75625,28.2921875 15.75625,26.7076563 16.7328125,25.7328125 L22.4640625,20 L16.7328125,14.2670312 C15.75625,13.2904687 15.75625,11.7076563 16.7328125,10.7328125 C17.709375,9.75625 19.290625,9.75625 20.2671875,10.7328125 L27.7671875,18.2328125 C28.74375,19.2076563 28.74375,20.7904687 27.7671875,21.7671875 L20.2671875,29.2671875 C19.7796875,29.75625 19.1390625,30 18.5,30 L18.5,30 L18.5,30 Z" transform="translate(21.000000, 20.000000) rotate(180.000000) translate(-21.000000, -20.000000) "></path>
        </g>
    </g>
</svg>