<?xml version="1.0" encoding="UTF-8" standalone="no"?>
<svg width="40px" height="40px" viewBox="0 0 40 40" version="1.1" xmlns="http://www.w3.org/2000/svg" xmlns:xlink="http://www.w3.org/1999/xlink">
    <defs></defs>
    <g id="Page-1" stroke="none" stroke-width="1" fill="none" fill-rule="evenodd">
        <path d="M20,0 C31.0453125,0 40,8.95453125 40,20 C40,31.0453125 31.0453125,40 20,40 C8.9546875,40 0,31.0453125 0,20 C0,8.95453125 8.9546875,0 20,0 L20,0 Z M20,2.5 C15.325,2.5 10.93125,4.3203125 7.625,7.625 C4.3203125,10.93125 2.5,15.325 2.5,20 C2.5,24.675 4.3203125,29.06875 7.625,32.375 C10.93125,35.6795313 15.325,37.5 20,37.5 C24.675,37.5 29.06875,35.6795313 32.375,32.375 C35.6796875,29.06875 37.5,24.675 37.5,20 C37.5,15.325 35.6796875,10.93125 32.375,7.625 C29.06875,4.3203125 24.675,2.5 20,2.5 L20,2.5 Z M17.5,30 C16.8609375,30 16.2203125,29.75625 15.7328125,29.2671875 C14.75625,28.2921875 14.75625,26.7076563 15.7328125,25.7328125 L21.4640625,20 L15.7328125,14.2670312 C14.75625,13.2904687 14.75625,11.7076563 15.7328125,10.7328125 C16.709375,9.75625 18.290625,9.75625 19.2671875,10.7328125 L26.7671875,18.2328125 C27.74375,19.2076563 27.74375,20.7904687 26.7671875,21.7671875 L19.2671875,29.2671875 C18.7796875,29.75625 18.1390625,30 17.5,30 L17.5,30 Z" id="Fill-290" fill="#FFFFFF" transform="translate(20.000000, 20.000000) scale(-1, -1) rotate(-90.000000) translate(-20.000000, -20.000000) "></path>
    </g>
</svg>