<?xml version="1.0" encoding="UTF-8" standalone="no"?>
<svg width="40px" height="36px" viewBox="0 0 40 36" version="1.1" xmlns="http://www.w3.org/2000/svg" xmlns:xlink="http://www.w3.org/1999/xlink">
    <defs></defs>
    <g id="Page-1" stroke="none" stroke-width="1" fill="none" fill-rule="evenodd">
        <g id="1416605179_code" transform="translate(0.000000, 1.000000)" fill="#FFFFFF">
            <path d="M37.8124706,27.0814744 L37.4999216,27.0814744 L37.4999216,24.2460326 L37.4999216,5.97356279 L37.4999216,5.65846977 L3.74996078,5.65846977 L3.74996078,2.193 C3.74996078,0.975009302 4.72933333,-0.0123348837 5.9374902,-0.0123348837 L37.8124706,-0.0124139535 C39.0206275,-0.0124139535 40,0.975009302 40,2.19292093 L40,2.19292093 L40,24.8760605 L40,24.8761395 C40,26.0940512 39.0206275,27.0814744 37.8124706,27.0814744 L37.8124706,27.0814744 Z M6.87498039,2.193 C6.52980392,2.193 6.24996078,2.47512093 6.24996078,2.82310698 C6.24996078,3.17109302 6.52980392,3.45313488 6.87498039,3.45313488 C7.22015686,3.45313488 7.5,3.17109302 7.5,2.82310698 C7.5,2.47512093 7.22015686,2.193 6.87498039,2.193 L6.87498039,2.193 Z M9.06243137,2.193 C8.7172549,2.193 8.43741176,2.47512093 8.43741176,2.82310698 C8.43741176,3.17109302 8.7172549,3.45313488 9.06243137,3.45313488 C9.40760784,3.45313488 9.68745098,3.17109302 9.68745098,2.82310698 C9.68745098,2.47512093 9.40768627,2.193 9.06243137,2.193 L9.06243137,2.193 Z M11.2499608,2.193 C10.9047843,2.193 10.6249412,2.47512093 10.6249412,2.82310698 C10.6249412,3.17109302 10.9047843,3.45313488 11.2499608,3.45313488 C11.5951373,3.45313488 11.8749804,3.17109302 11.8749804,2.82310698 C11.8749804,2.47512093 11.5951373,2.193 11.2499608,2.193 L11.2499608,2.193 Z M36.2500392,9.12393953 L36.2500392,31.8070791 L36.2500392,31.8071581 C36.2500392,33.0251488 35.2706667,34.012414 34.0625098,34.012414 L2.18752941,34.012414 C0.979372549,34.012414 -3.55271368e-15,33.0249907 -3.55271368e-15,31.8070791 L-3.55271368e-15,9.12393953 C-3.55271368e-15,7.90602791 0.979372549,6.91876279 2.18752941,6.91876279 L34.0625098,6.91876279 C35.2705882,6.91868372 36.2500392,7.90594884 36.2500392,9.12393953 L36.2500392,9.12393953 Z M3.12501961,9.12393953 C2.77976471,9.12393953 2.5,9.40606047 2.5,9.75404651 C2.5,10.1021116 2.77984314,10.3841535 3.12501961,10.3841535 C3.47019608,10.3841535 3.74996078,10.1021116 3.74996078,9.75404651 C3.74996078,9.40606047 3.47011765,9.12393953 3.12501961,9.12393953 L3.12501961,9.12393953 Z M5.31247059,9.12393953 C4.96729412,9.12393953 4.68745098,9.40606047 4.68745098,9.75404651 C4.68745098,10.1021116 4.96729412,10.3841535 5.31247059,10.3841535 C5.65764706,10.3841535 5.9374902,10.1021116 5.9374902,9.75404651 C5.9374902,9.40606047 5.65764706,9.12393953 5.31247059,9.12393953 L5.31247059,9.12393953 Z M7.5,9.12393953 C7.15482353,9.12393953 6.87498039,9.40606047 6.87498039,9.75404651 C6.87498039,10.1021116 7.15482353,10.3841535 7.5,10.3841535 C7.84517647,10.3841535 8.12501961,10.1021116 8.12501961,9.75404651 C8.12494118,9.40606047 7.84517647,9.12393953 7.5,9.12393953 L7.5,9.12393953 Z M33.7499608,12.9045023 C33.7499608,12.7304698 33.6100392,12.5894884 33.4374902,12.5894884 L2.81247059,12.5894884 C2.63984314,12.5894884 2.5,12.7304698 2.5,12.9045023 L2.5,31.1769721 C2.5,31.3510047 2.63992157,31.491986 2.81247059,31.491986 L33.4374902,31.491986 C33.6101176,31.491986 33.7499608,31.3510047 33.7499608,31.1769721 L33.7499608,12.9045023 L33.7499608,12.9045023 Z M24.3529412,26.3088047 C24.2098039,26.4513674 23.9777255,26.4513674 23.8345098,26.3088047 L23.3160784,25.7925581 C23.1729412,25.6499953 23.1729412,25.4189535 23.3160784,25.2763116 L26.516,22.0900372 L23.3160784,18.9038419 C23.1729412,18.7612791 23.1729412,18.5301581 23.3160784,18.3875953 L23.8345098,17.8713488 C23.9776471,17.7288651 24.2098039,17.7288651 24.3529412,17.8713488 L28.3300392,21.8314791 C28.4017255,21.9028791 28.4374118,21.9964977 28.4373333,22.0900372 C28.4374118,22.1836558 28.4017255,22.2772744 28.3300392,22.3485953 L24.3529412,26.3088047 L24.3529412,26.3088047 Z M17.9810196,26.1611814 C17.8833725,26.3319721 17.6671373,26.3904047 17.4980392,26.2918837 L16.8857255,25.9348047 C16.7166275,25.8362047 16.6586667,25.6179721 16.7563137,25.4471814 L21.2016471,17.8594093 C21.2992941,17.6886186 21.5155294,17.630107 21.684549,17.728707 L22.2968627,18.085707 C22.4659608,18.184307 22.5239216,18.4026186 22.4262745,18.5734093 L17.9810196,26.1611814 L17.9810196,26.1611814 Z M12.9338039,25.7925581 L12.4153725,26.3088047 C12.2722353,26.4513674 12.0401569,26.4513674 11.8969412,26.3088047 L7.91984314,22.3486744 C7.84815686,22.2773535 7.81247059,22.1837349 7.81254902,22.0901163 C7.81239216,21.9965767 7.84807843,21.9029581 7.91984314,21.8315581 L11.8969412,17.8714279 C12.0400784,17.7289442 12.2721569,17.7289442 12.4153725,17.8714279 L12.9338039,18.3876744 C13.0769412,18.5302372 13.0769412,18.7612791 12.9338039,18.9039209 L9.73388235,22.0901163 L12.9338039,25.2763907 C13.0769412,25.4189535 13.0769412,25.6500744 12.9338039,25.7925581 L12.9338039,25.7925581 Z" id="Shape"></path>
        </g>
    </g>
</svg>