<?xml version="1.0" encoding="UTF-8" standalone="no"?>
<svg width="40px" height="34px" viewBox="0 0 40 34" version="1.1" xmlns="http://www.w3.org/2000/svg" xmlns:xlink="http://www.w3.org/1999/xlink">
    <defs></defs>
    <g id="Page-1" stroke="none" stroke-width="1" fill="none" fill-rule="evenodd">
        <g id="1416605159_grey_new_seo-18" fill="#FFFFFF">
            <g id="layout">
                <path d="M37.1962617,0 L3.17757009,0 C1.53271028,0 0,1.25532584 0,2.93622472 L0,34 L40,34 L40,2.93622472 C40,1.25532584 38.8411215,0 37.1962617,0 L37.1962617,0 Z M16.4485981,3.05617978 C17.2743925,3.05617978 17.9439252,3.74038202 17.9439252,4.58426966 C17.9439252,5.4281573 17.2743925,6.11235955 16.4485981,6.11235955 C15.6228037,6.11235955 14.953271,5.4281573 14.953271,4.58426966 C14.953271,3.74038202 15.6228037,3.05617978 16.4485981,3.05617978 L16.4485981,3.05617978 Z M10.4672897,3.05617978 C11.2930841,3.05617978 11.9626168,3.74038202 11.9626168,4.58426966 C11.9626168,5.4281573 11.2930841,6.11235955 10.4672897,6.11235955 C9.64149533,6.11235955 8.97196262,5.4281573 8.97196262,4.58426966 C8.97196262,3.74038202 9.64149533,3.05617978 10.4672897,3.05617978 L10.4672897,3.05617978 Z M4.48598131,3.05617978 C5.3117757,3.05617978 5.98130841,3.74038202 5.98130841,4.58426966 C5.98130841,5.4281573 5.3117757,6.11235955 4.48598131,6.11235955 C3.66018692,6.11235955 2.99065421,5.4281573 2.99065421,4.58426966 C2.99065421,3.74038202 3.66018692,3.05617978 4.48598131,3.05617978 L4.48598131,3.05617978 Z M38.5046729,32.4719101 L1.4953271,32.4719101 L1.4953271,8.40449438 L38.5046729,8.40449438 L38.5046729,32.4719101 L38.5046729,32.4719101 Z" id="Shape"></path>
                <rect id="Rectangle-path" x="4.48598131" y="11.4606742" width="13.8317757" height="17.9550562"></rect>
                <rect id="Rectangle-path" x="19.8130841" y="11.4606742" width="15.7009346" height="8.40449438"></rect>
                <rect id="Rectangle-path" x="28.7850467" y="21.3932584" width="6.72897196" height="8.02247191"></rect>
                <rect id="Rectangle-path" x="19.8130841" y="21.3932584" width="7.10280374" height="8.02247191"></rect>
            </g>
        </g>
    </g>
</svg>