<?xml version="1.0" encoding="UTF-8" standalone="no"?>
<svg width="41px" height="50px" viewBox="0 0 41 50" version="1.1" xmlns="http://www.w3.org/2000/svg" xmlns:xlink="http://www.w3.org/1999/xlink">
    <defs></defs>
    <g id="Page-1" stroke="none" stroke-width="1" fill="none" fill-rule="evenodd">
        <g id="1416605138_grey_new_seo2-17" fill="#FFFFFF">
            <g id="testing_x5F_research">
                <path d="M39.476129,43.7425439 L27.5268817,22.7052632 L27.5268817,17.1052632 L27.7522581,17.1052632 C29.528172,17.1052632 30.9677419,15.6372807 30.9677419,13.8263158 L30.9677419,12.0508772 C30.9677419,10.2399123 29.528172,8.77192982 27.7522581,8.77192982 L11.8176344,8.77192982 C10.0417204,8.77192982 8.60215054,10.2399123 8.60215054,12.0508772 L8.60215054,13.8263158 C8.60215054,15.6372807 10.0417204,17.1052632 11.8176344,17.1052632 L12.0430108,17.1052632 L12.0430108,22.6916667 L0.953978495,43.7557018 C-0.839569892,47.2482456 0.627956989,50 4.21548387,50 L35.3544086,50 C38.9419355,50 41.2696774,47.2350877 39.476129,43.7425439 L39.476129,43.7425439 Z M37.4533333,47.4122807 C37.0227957,48.1372807 35.9535484,48.245614 35.3544086,48.245614 L4.21548387,48.245614 C3.61505376,48.245614 2.54322581,48.1377193 2.1144086,47.4149123 C1.74623656,46.7938596 1.88215054,45.7302632 2.47827957,44.5701754 L13.7634409,23.1407895 L13.7634409,15.3508772 L11.8180645,15.3508772 C10.9935484,15.3508772 10.3225806,14.6666667 10.3225806,13.8258772 L10.3225806,12.0504386 C10.3225806,11.2105263 10.9935484,10.5263158 11.8180645,10.5263158 L27.7522581,10.5263158 C28.5763441,10.5263158 29.2473118,11.2105263 29.2473118,12.0508772 L29.2473118,13.8263158 C29.2473118,14.6666667 28.5763441,15.3508772 27.751828,15.3508772 L25.8064516,15.3508772 L25.8064516,23.1548246 L37.1070968,44.5868421 C37.6890323,45.7197368 37.824086,46.7872807 37.4533333,47.4122807 L37.4533333,47.4122807 Z" id="Shape"></path>
                <path d="M25.2025806,26.1175439 C20.3410753,28.4442982 19.9423656,32.6570175 16.2008602,32.4561404 C14.4984946,32.3649123 12.8804301,31.9881579 11.4602151,31.5131579 L4.00215054,45.3846491 C3.75483871,45.8671053 3.66494624,46.225 3.63870968,46.4324561 C3.76387097,46.4627193 3.95526882,46.4916667 4.21548387,46.4916667 L35.3544086,46.4916667 C35.6176344,46.4916667 35.8103226,46.4618421 35.9341935,46.4307018 C35.9122581,46.229386 35.8309677,45.8828947 35.5991398,45.4315789 L25.2025806,26.1175439 L25.2025806,26.1175439 Z" id="Shape"></path>
                <ellipse id="Oval" cx="18.4946237" cy="24.5614035" rx="2.58064516" ry="2.63157895"></ellipse>
                <ellipse id="Oval" cx="19.928172" cy="16.3741228" rx="3.58408602" ry="3.65482456"></ellipse>
                <ellipse id="Oval" cx="17.4911828" cy="4.67850877" rx="2.00731183" ry="2.04692982"></ellipse>
                <ellipse id="Oval" cx="21.9354839" cy="1.75438596" rx="1.72043011" ry="1.75438596"></ellipse>
            </g>
        </g>
    </g>
</svg>