<?xml version="1.0" encoding="UTF-8" standalone="no"?>
<svg width="80px" height="76px" viewBox="0 0 80 76" version="1.1" xmlns="http://www.w3.org/2000/svg" xmlns:xlink="http://www.w3.org/1999/xlink">
    <defs></defs>
    <g id="Page-1" stroke="none" stroke-width="1" fill="none" fill-rule="evenodd">
        <g id="1416605219_Texas_TX" fill="#43434B">
            <path d="M57.229375,68.704 L57.05625,66.4456694 L57.229375,66.272 L57.4890625,66.1851653 L59.0475,73.8286612 L57.229375,68.704 L57.229375,68.704 Z M58.181875,63.84 L57.2295312,66.0114959 L58.181875,62.9714959 L59.3939063,61.1474959 L58.528125,62.9714959 L58.181875,63.84 L58.181875,63.84 Z M60.173125,59.4103306 L60.4328125,59.3234959 L60.4328125,59.9314959 L59.5670312,61.1474959 L60.173125,59.4103306 L60.173125,59.4103306 Z M61.29875,58.6285041 L60.4329688,59.584 L61.0390625,58.6285041 L63.2035938,57.6731653 L61.29875,58.6285041 L61.29875,58.6285041 Z M63.8960937,56.8914959 L64.415625,56.544 L63.4632812,56.9783306 L63.8960937,56.8914959 L63.8960937,56.8914959 Z M73.0735937,49.856 L71.1689062,51.68 L72.6407812,50.1166612 L72.6407812,49.856 L73.0735937,49.856 L73.0735937,49.856 Z M39.7403125,0 L39.826875,13.7234959 L42.0779687,15.0263306 L43.3767187,15.0263306 L43.6364062,14.6788347 L45.0217187,16.1553388 L48.3117187,16.6765041 L48.83125,17.4583306 L51.1689062,16.6765041 L52.294375,18.4136694 L53.76625,17.7188347 L55.1515625,18.9348347 L56.536875,18.0661736 L56.883125,19.455843 L58.181875,17.8056694 L59.0476562,18.4136694 L59.9134375,18.0661736 L61.818125,19.1953388 L64.1557812,17.8056694 L64.935,18.0661736 L66.1471875,17.5450083 L67.4459375,17.8056694 L68.1385937,17.023843 L73.3334375,19.7165041 L75.4114062,19.455843 L76.1040625,30.6603471 L77.5759375,31.9631818 L77.5759375,33.439686 L80,37.1748347 L78.70125,40.5621736 L79.2207813,44.1233388 L77.9220312,45.8605041 L78.4415625,46.816 L77.2295312,47.1634959 L73.07375,49.856 L73.3334375,48.8136694 L74.891875,48.2056694 L74.891875,48.031843 L72.6407812,48.4661736 L72.9870313,46.816 L72.2078125,47.424 L71.1689062,47.1634959 L72.0346875,49.3349917 L72.6407812,49.856157 L70.9092187,50.9853223 L70.9092187,51.8539835 L69.3507812,53.4173223 L66.1473437,54.9806612 L66.1473437,55.0674959 L67.4460937,54.6331653 L64.4157812,56.544 L65.8010937,55.0674959 L64.4157812,55.6754959 L64.9351562,55.328 L64.5889062,54.9805041 L63.4634375,55.328 L63.20375,54.72 L62.9440625,54.6331653 L63.2903125,55.328 L63.20375,55.6754959 L62.7707813,56.1098264 L62.9439063,55.328157 L61.8184375,54.9806612 L62.7707813,56.3703306 L62.3378125,56.8914959 L63.2035938,56.9783306 L61.8182813,57.76 L60.9525,56.8914959 L61.0390625,58.368 L60.2598438,59.1496694 L59.9135938,59.3233388 L60.1732813,58.1073388 L59.9135938,59.3233388 L59.5673438,58.5416694 L58.5284375,59.1496694 L58.788125,60.192 L59.5673438,59.4103306 L58.5284375,61.408 L56.3639063,61.1473388 L58.1820313,62.5370083 L57.0565625,65.3165041 L56.3639063,65.5771653 L56.7101563,64.5348347 L55.9309375,65.4033388 L54.9785938,64.1873388 L55.7578125,65.4033388 L54.9785938,65.5771653 L57.0565625,65.5771653 L56.3639063,67.488 L56.8834375,68.1828347 L56.3639063,68.704 L58.1820313,73.7416694 L58.96125,73.8285041 L58.788125,74.4365041 L59.0478125,74.175843 L59.3940625,74.6101736 L58.1820313,75.2181736 L58.0085938,76 L56.0171875,74.4366612 L52.640625,74.2629917 L48.3982813,72.352157 L46.6667188,72.1784876 L45.8009375,69.312157 L44.2425,67.488157 L43.8095313,63.5794959 L41.7315625,62.5371653 L40.173125,59.9314959 L38.8745313,58.6286612 L36.36375,52.6354959 L32.900625,49.3349917 L32.2079688,49.5086612 L31.601875,48.032157 L27.0996875,47.7714959 L26.0607813,47.3371653 L25.54125,48.032 L23.8096875,48.2058264 L22.7707813,51.8538264 L20.9526563,53.8514959 L19.4807813,53.504 L12.8140625,48.9874959 L9.956875,41.7783306 L7.35953125,40.128 L0.34625,32.5714959 L0,31.3554959 L21.5584375,32.224 L22.5107812,0 L39.7403125,0 L39.7403125,0 Z" id="Shape"></path>
        </g>
    </g>
</svg>