<?xml version="1.0" encoding="UTF-8" standalone="no"?>
<svg width="80px" height="91px" viewBox="0 0 80 91" version="1.1" xmlns="http://www.w3.org/2000/svg" xmlns:xlink="http://www.w3.org/1999/xlink">
    <defs></defs>
    <g id="Page-1" stroke="none" stroke-width="1" fill="none" fill-rule="evenodd">
        <g id="1416605211_California_CA" fill="#43434B">
            <path d="M46.8555604,88.807291 L45.9919121,88.6976289 L44.9123516,86.3952578 L45.2362198,86.3952578 L46.8555604,88.807291 L46.8555604,88.807291 Z M37.3549011,84.5313574 L38.0026374,84.6410195 L38.0026374,84.9698281 L36.9230769,84.5313574 L37.3549011,84.5313574 L37.3549011,84.5313574 Z M46.8555604,83.1061055 L47.0714725,83.9832246 L46.2078242,83.9832246 L44.8043956,82.6676348 L46.8555604,83.1061055 L46.8555604,83.1061055 Z M33.0364835,77.514582 L33.2523956,78.172377 L32.1728352,78.8301719 L31.4171429,77.514582 L33.0364835,77.514582 L33.0364835,77.514582 Z M30.8771868,77.2952578 L30.8771868,77.514582 L29.7976264,77.2952578 L30.2294505,76.9664492 L30.8771868,77.2952578 L30.8771868,77.2952578 Z M34.7637802,77.0759336 L36.8151209,76.9662715 L37.031033,77.2950801 L34.9796923,77.952875 L33.7921758,76.9660937 L34.7637802,77.0759336 L34.7637802,77.0759336 Z M31.8487912,10.525252 L32.1726593,29.0542383 L75.2495824,65.6735625 L77.9486593,70.4976289 L80,71.8132188 L76.9770549,75.5410195 L77.192967,79.5976289 L75.5734505,80.9132187 L76.5450549,84.2023711 L78.1645714,84.9698281 L78.0566154,87.2721992 L57.1120879,91 L56.2484396,89.6844102 L57.1120879,89.9035566 L56.8961758,89.2457617 L55.9245714,89.6842324 L55.2768352,85.7372852 L53.3334505,83.1059277 L48.2591648,79.5974512 L46.2078242,79.7071133 L45.2362198,77.0757559 L42.861011,77.2949023 L40.2698901,76.4179609 L38.8664615,74.7733848 L36.2753407,73.4577949 L29.2578462,73.0193242 L28.1782857,72.3615293 L28.1782857,66.4410195 L26.1269451,65.892709 L26.1269451,63.9193242 L23.104,61.6169531 L21.2685714,58.4374629 L18.4615385,55.5867813 L17.8138022,52.5169531 L18.6774505,52.2978066 L19.2172308,50.3242441 L18.1376703,49.1183164 L16.4103736,49.1183164 L15.0069451,47.4737402 L13.3874286,43.6364551 L13.3874286,41.1147598 L14.359033,40.7859512 L14.466989,42.7593359 L16.4103736,44.1845879 L17.1660659,44.1845879 L15.9785495,41.5532305 L15.0069451,40.7857734 L14.3592088,39.1411973 L14.5751209,38.7027266 L15.6546813,38.5930645 L16.1944615,38.7027266 L19.7571868,38.7027266 L20.0810549,37.7159453 L21.7005714,38.7027266 L20.4050989,37.7159453 L19.2175824,38.5930645 L19.7573626,37.6062832 L18.0300659,38.5930645 L17.1664176,37.6062832 L16.0868571,38.5930645 L14.3593846,37.4966211 L13.3877802,37.6062832 L13.9275604,40.0183164 L13.3877802,40.5664492 L10.2563516,38.1542383 L9.71657143,39.0313574 L9.93248352,36.7289863 L11.012044,37.7157676 L8.9607033,34.3169531 L4.53415385,29.6025488 L4.53415385,27.9579727 L3.77846154,25.326793 L4.21028571,22.2569648 L2.91463736,19.4064609 L0.107956044,16.9938945 L0,15.1301719 L0.755692308,12.4989922 L2.05134066,11.1834023 L1.4036044,11.9508594 L2.69907692,5.37255469 L1.94338462,2.96052148 L1.4036044,1.97374023 L1.51138462,0 L31.7408352,0 L31.8487912,10.525252 L31.8487912,10.525252 Z" id="Shape"></path>
        </g>
    </g>
</svg>