<?xml version="1.0" encoding="UTF-8" standalone="no"?>
<svg width="81px" height="95px" viewBox="0 0 81 95" version="1.1" xmlns="http://www.w3.org/2000/svg" xmlns:xlink="http://www.w3.org/1999/xlink">
    <defs></defs>
    <g id="Page-1" stroke="none" stroke-width="1" fill="none" fill-rule="evenodd">
        <g id="1416605223_Georgia_GA" transform="translate(1.000000, 0.000000)" fill="#43434B">
            <path d="M69.1271663,87.5974219 L68.5165427,84.6364648 L69.8600993,83.0325977 L69.127351,86.240332 L69.127351,87.5974219 L69.1271663,87.5974219 L69.1271663,87.5974219 Z M8.79127714,52.5583789 L6.59284758,47.870166 L5.24929099,42.0714551 L-0.369,0 L41.0355266,0.740332031 L37.6156651,4.31823242 L37.1271663,6.53904297 L39.9364042,8.75985352 L42.1348337,10.9806641 L44.9438868,11.8443848 L47.5088753,17.6430957 L50.073679,21.8379395 L55.0813464,25.7860059 L56.5470277,29.2405176 L60.8217621,31.9546973 L60.8217621,34.1755078 L62.2874434,35.1624316 L62.043194,36.2729297 L63.3867506,36.889873 L63.7531247,38.4937402 L67.7836097,40.7145508 L69.8599145,46.7600391 L69.8599145,49.3510156 L73.4019007,52.0651953 L74.3790831,55.2731152 L74.3790831,59.097793 L79.631,61.6887695 L78.5316928,62.6758789 L77.9210693,62.3057129 L77.3104457,63.0460449 L77.9210693,63.7861914 L77.188321,64.4031348 L74.745642,63.7861914 L75.2341409,64.2797461 L74.3792679,64.8966895 L76.333448,65.2668555 L75.1120162,67.1175 L72.0585289,66.6239453 L73.4020855,67.7342578 L72.6693372,68.7213672 L74.2571432,68.3512012 L74.3792679,67.7342578 L74.3792679,68.3512012 L74.0128938,70.5720117 L72.6693372,69.0915332 L73.4020855,69.9552539 L71.2036559,70.9423633 L72.1808383,71.3125293 L71.8144642,72.1760645 L74.0128938,71.065752 L72.1808383,74.2736719 L71.2036559,73.5333398 L72.1808383,75.3839844 L68.5167275,74.767041 L71.2038406,75.7539648 L72.1810231,77.1110547 L70.4710924,79.3318652 L69.6162194,77.8513867 L69.1277206,77.9747754 L69.1277206,79.8254199 L68.517097,79.5786426 L69.2498453,80.6889551 L69.8604688,79.5786426 L69.6162194,81.7994531 L68.1505381,80.4423633 L69.1275358,81.7994531 L68.1505381,82.4163965 L69.1275358,83.0333398 L68.2726628,84.0204492 L68.5169122,85.3775391 L67.784164,85.2541504 L68.2726628,88.0917187 L60.0893834,85.8709082 L58.9900762,87.5981641 L59.4785751,90.6825098 L58.7458268,94.8773535 L56.5472125,95 L55.3257806,91.0519336 L9.64633487,87.4740332 L7.44790531,82.168877 L7.20365589,79.8246777 L5.86009931,77.8508301 L7.20365589,70.5714551 L5.49372517,64.8961328 L7.69215473,57.8637207 L10.012709,55.6429102 L8.424903,54.2858203 L8.79127714,52.5583789 L8.79127714,52.5583789 Z" id="Shape"></path>
        </g>
    </g>
</svg>